<?xml version="1.0" encoding="UTF-8" standalone="no"?>
<!DOCTYPE svg PUBLIC "-//W3C//DTD SVG 1.1//EN"
 "http://www.w3.org/Graphics/SVG/1.1/DTD/svg11.dtd">
<!-- Generated by graphviz version 2.47.1 (20210417.1919)
 -->
<!-- Title: G Pages: 1 -->
<svg width="535pt" height="1464pt"
 viewBox="0.00 0.00 400.92 1097.80" xmlns="http://www.w3.org/2000/svg" xmlns:xlink="http://www.w3.org/1999/xlink">
<g id="graph0" class="graph" transform="scale(1.33 1.33) rotate(0) translate(4 1093.8)">
<title>G</title>
<polygon fill="white" stroke="transparent" points="-4,4 -4,-1093.8 396.92,-1093.8 396.92,4 -4,4"/>
<!-- 139775822287008 -->
<g id="node1" class="node">
<title>139775822287008</title>
<polygon fill="none" stroke="black" points="26.85,-1039.7 26.85,-1089.3 366.07,-1089.3 366.07,-1039.7 26.85,-1039.7"/>
<text text-anchor="middle" x="108.14" y="-1060.3" font-family="Times,serif" font-size="14.00">conv2d_input: InputLayer</text>
<polyline fill="none" stroke="black" points="189.43,-1039.7 189.43,-1089.3 "/>
<text text-anchor="middle" x="217.27" y="-1072.7" font-family="Times,serif" font-size="14.00">input:</text>
<polyline fill="none" stroke="black" points="189.43,-1064.5 245.1,-1064.5 "/>
<text text-anchor="middle" x="217.27" y="-1047.9" font-family="Times,serif" font-size="14.00">output:</text>
<polyline fill="none" stroke="black" points="245.1,-1039.7 245.1,-1089.3 "/>
<text text-anchor="middle" x="305.59" y="-1072.7" font-family="Times,serif" font-size="14.00">[(None, 49, 49, 3)]</text>
<polyline fill="none" stroke="black" points="245.1,-1064.5 366.07,-1064.5 "/>
<text text-anchor="middle" x="305.59" y="-1047.9" font-family="Times,serif" font-size="14.00">[(None, 49, 49, 3)]</text>
</g>
<!-- 139775848622640 -->
<g id="node2" class="node">
<title>139775848622640</title>
<polygon fill="none" stroke="black" points="53.28,-953.1 53.28,-1002.7 339.64,-1002.7 339.64,-953.1 53.28,-953.1"/>
<text text-anchor="middle" x="109.3" y="-973.7" font-family="Times,serif" font-size="14.00">conv2d: Conv2D</text>
<polyline fill="none" stroke="black" points="165.33,-953.1 165.33,-1002.7 "/>
<text text-anchor="middle" x="193.16" y="-986.1" font-family="Times,serif" font-size="14.00">input:</text>
<polyline fill="none" stroke="black" points="165.33,-977.9 221,-977.9 "/>
<text text-anchor="middle" x="193.16" y="-961.3" font-family="Times,serif" font-size="14.00">output:</text>
<polyline fill="none" stroke="black" points="221,-953.1 221,-1002.7 "/>
<text text-anchor="middle" x="280.32" y="-986.1" font-family="Times,serif" font-size="14.00">(None, 49, 49, 3)</text>
<polyline fill="none" stroke="black" points="221,-977.9 339.64,-977.9 "/>
<text text-anchor="middle" x="280.32" y="-961.3" font-family="Times,serif" font-size="14.00">(None, 49, 49, 32)</text>
</g>
<!-- 139775822287008&#45;&gt;139775848622640 -->
<g id="edge1" class="edge">
<title>139775822287008&#45;&gt;139775848622640</title>
<path fill="none" stroke="black" d="M196.46,-1039.48C196.46,-1031.27 196.46,-1021.91 196.46,-1013.05"/>
<polygon fill="black" stroke="black" points="199.96,-1012.98 196.46,-1002.98 192.96,-1012.98 199.96,-1012.98"/>
</g>
<!-- 139775823140176 -->
<g id="node3" class="node">
<title>139775823140176</title>
<polygon fill="none" stroke="black" points="29.97,-866.5 29.97,-916.1 362.95,-916.1 362.95,-866.5 29.97,-866.5"/>
<text text-anchor="middle" x="109.3" y="-887.1" font-family="Times,serif" font-size="14.00">leaky_re_lu: LeakyReLU</text>
<polyline fill="none" stroke="black" points="188.64,-866.5 188.64,-916.1 "/>
<text text-anchor="middle" x="216.47" y="-899.5" font-family="Times,serif" font-size="14.00">input:</text>
<polyline fill="none" stroke="black" points="188.64,-891.3 244.31,-891.3 "/>
<text text-anchor="middle" x="216.47" y="-874.7" font-family="Times,serif" font-size="14.00">output:</text>
<polyline fill="none" stroke="black" points="244.31,-866.5 244.31,-916.1 "/>
<text text-anchor="middle" x="303.63" y="-899.5" font-family="Times,serif" font-size="14.00">(None, 49, 49, 32)</text>
<polyline fill="none" stroke="black" points="244.31,-891.3 362.95,-891.3 "/>
<text text-anchor="middle" x="303.63" y="-874.7" font-family="Times,serif" font-size="14.00">(None, 49, 49, 32)</text>
</g>
<!-- 139775848622640&#45;&gt;139775823140176 -->
<g id="edge2" class="edge">
<title>139775848622640&#45;&gt;139775823140176</title>
<path fill="none" stroke="black" d="M196.46,-952.88C196.46,-944.67 196.46,-935.31 196.46,-926.45"/>
<polygon fill="black" stroke="black" points="199.96,-926.38 196.46,-916.38 192.96,-926.38 199.96,-926.38"/>
</g>
<!-- 139775823140704 -->
<g id="node4" class="node">
<title>139775823140704</title>
<polygon fill="none" stroke="black" points="10.5,-779.9 10.5,-829.5 382.42,-829.5 382.42,-779.9 10.5,-779.9"/>
<text text-anchor="middle" x="109.3" y="-800.5" font-family="Times,serif" font-size="14.00">max_pooling2d: MaxPooling2D</text>
<polyline fill="none" stroke="black" points="208.11,-779.9 208.11,-829.5 "/>
<text text-anchor="middle" x="235.94" y="-812.9" font-family="Times,serif" font-size="14.00">input:</text>
<polyline fill="none" stroke="black" points="208.11,-804.7 263.78,-804.7 "/>
<text text-anchor="middle" x="235.94" y="-788.1" font-family="Times,serif" font-size="14.00">output:</text>
<polyline fill="none" stroke="black" points="263.78,-779.9 263.78,-829.5 "/>
<text text-anchor="middle" x="323.1" y="-812.9" font-family="Times,serif" font-size="14.00">(None, 49, 49, 32)</text>
<polyline fill="none" stroke="black" points="263.78,-804.7 382.42,-804.7 "/>
<text text-anchor="middle" x="323.1" y="-788.1" font-family="Times,serif" font-size="14.00">(None, 25, 25, 32)</text>
</g>
<!-- 139775823140176&#45;&gt;139775823140704 -->
<g id="edge3" class="edge">
<title>139775823140176&#45;&gt;139775823140704</title>
<path fill="none" stroke="black" d="M196.46,-866.28C196.46,-858.07 196.46,-848.71 196.46,-839.85"/>
<polygon fill="black" stroke="black" points="199.96,-839.78 196.46,-829.78 192.96,-839.78 199.96,-839.78"/>
</g>
<!-- 139775823141712 -->
<g id="node5" class="node">
<title>139775823141712</title>
<polygon fill="none" stroke="black" points="46.28,-693.3 46.28,-742.9 346.64,-742.9 346.64,-693.3 46.28,-693.3"/>
<text text-anchor="middle" x="109.3" y="-713.9" font-family="Times,serif" font-size="14.00">conv2d_1: Conv2D</text>
<polyline fill="none" stroke="black" points="172.33,-693.3 172.33,-742.9 "/>
<text text-anchor="middle" x="200.16" y="-726.3" font-family="Times,serif" font-size="14.00">input:</text>
<polyline fill="none" stroke="black" points="172.33,-718.1 228,-718.1 "/>
<text text-anchor="middle" x="200.16" y="-701.5" font-family="Times,serif" font-size="14.00">output:</text>
<polyline fill="none" stroke="black" points="228,-693.3 228,-742.9 "/>
<text text-anchor="middle" x="287.32" y="-726.3" font-family="Times,serif" font-size="14.00">(None, 25, 25, 32)</text>
<polyline fill="none" stroke="black" points="228,-718.1 346.64,-718.1 "/>
<text text-anchor="middle" x="287.32" y="-701.5" font-family="Times,serif" font-size="14.00">(None, 25, 25, 64)</text>
</g>
<!-- 139775823140704&#45;&gt;139775823141712 -->
<g id="edge4" class="edge">
<title>139775823140704&#45;&gt;139775823141712</title>
<path fill="none" stroke="black" d="M196.46,-779.68C196.46,-771.47 196.46,-762.11 196.46,-753.25"/>
<polygon fill="black" stroke="black" points="199.96,-753.18 196.46,-743.18 192.96,-753.18 199.96,-753.18"/>
</g>
<!-- 139775822607312 -->
<g id="node6" class="node">
<title>139775822607312</title>
<polygon fill="none" stroke="black" points="22.97,-606.7 22.97,-656.3 369.95,-656.3 369.95,-606.7 22.97,-606.7"/>
<text text-anchor="middle" x="109.3" y="-627.3" font-family="Times,serif" font-size="14.00">leaky_re_lu_1: LeakyReLU</text>
<polyline fill="none" stroke="black" points="195.64,-606.7 195.64,-656.3 "/>
<text text-anchor="middle" x="223.47" y="-639.7" font-family="Times,serif" font-size="14.00">input:</text>
<polyline fill="none" stroke="black" points="195.64,-631.5 251.31,-631.5 "/>
<text text-anchor="middle" x="223.47" y="-614.9" font-family="Times,serif" font-size="14.00">output:</text>
<polyline fill="none" stroke="black" points="251.31,-606.7 251.31,-656.3 "/>
<text text-anchor="middle" x="310.63" y="-639.7" font-family="Times,serif" font-size="14.00">(None, 25, 25, 64)</text>
<polyline fill="none" stroke="black" points="251.31,-631.5 369.95,-631.5 "/>
<text text-anchor="middle" x="310.63" y="-614.9" font-family="Times,serif" font-size="14.00">(None, 25, 25, 64)</text>
</g>
<!-- 139775823141712&#45;&gt;139775822607312 -->
<g id="edge5" class="edge">
<title>139775823141712&#45;&gt;139775822607312</title>
<path fill="none" stroke="black" d="M196.46,-693.08C196.46,-684.87 196.46,-675.51 196.46,-666.65"/>
<polygon fill="black" stroke="black" points="199.96,-666.58 196.46,-656.58 192.96,-666.58 199.96,-666.58"/>
</g>
<!-- 139775822607792 -->
<g id="node7" class="node">
<title>139775822607792</title>
<polygon fill="none" stroke="black" points="3.5,-520.1 3.5,-569.7 389.42,-569.7 389.42,-520.1 3.5,-520.1"/>
<text text-anchor="middle" x="109.3" y="-540.7" font-family="Times,serif" font-size="14.00">max_pooling2d_1: MaxPooling2D</text>
<polyline fill="none" stroke="black" points="215.11,-520.1 215.11,-569.7 "/>
<text text-anchor="middle" x="242.94" y="-553.1" font-family="Times,serif" font-size="14.00">input:</text>
<polyline fill="none" stroke="black" points="215.11,-544.9 270.78,-544.9 "/>
<text text-anchor="middle" x="242.94" y="-528.3" font-family="Times,serif" font-size="14.00">output:</text>
<polyline fill="none" stroke="black" points="270.78,-520.1 270.78,-569.7 "/>
<text text-anchor="middle" x="330.1" y="-553.1" font-family="Times,serif" font-size="14.00">(None, 25, 25, 64)</text>
<polyline fill="none" stroke="black" points="270.78,-544.9 389.42,-544.9 "/>
<text text-anchor="middle" x="330.1" y="-528.3" font-family="Times,serif" font-size="14.00">(None, 13, 13, 64)</text>
</g>
<!-- 139775822607312&#45;&gt;139775822607792 -->
<g id="edge6" class="edge">
<title>139775822607312&#45;&gt;139775822607792</title>
<path fill="none" stroke="black" d="M196.46,-606.48C196.46,-598.27 196.46,-588.91 196.46,-580.05"/>
<polygon fill="black" stroke="black" points="199.96,-579.98 196.46,-569.98 192.96,-579.98 199.96,-579.98"/>
</g>
<!-- 139775822608800 -->
<g id="node8" class="node">
<title>139775822608800</title>
<polygon fill="none" stroke="black" points="42.78,-433.5 42.78,-483.1 350.14,-483.1 350.14,-433.5 42.78,-433.5"/>
<text text-anchor="middle" x="105.8" y="-454.1" font-family="Times,serif" font-size="14.00">conv2d_2: Conv2D</text>
<polyline fill="none" stroke="black" points="168.83,-433.5 168.83,-483.1 "/>
<text text-anchor="middle" x="196.66" y="-466.5" font-family="Times,serif" font-size="14.00">input:</text>
<polyline fill="none" stroke="black" points="168.83,-458.3 224.5,-458.3 "/>
<text text-anchor="middle" x="196.66" y="-441.7" font-family="Times,serif" font-size="14.00">output:</text>
<polyline fill="none" stroke="black" points="224.5,-433.5 224.5,-483.1 "/>
<text text-anchor="middle" x="287.32" y="-466.5" font-family="Times,serif" font-size="14.00">(None, 13, 13, 64)</text>
<polyline fill="none" stroke="black" points="224.5,-458.3 350.14,-458.3 "/>
<text text-anchor="middle" x="287.32" y="-441.7" font-family="Times,serif" font-size="14.00">(None, 13, 13, 128)</text>
</g>
<!-- 139775822607792&#45;&gt;139775822608800 -->
<g id="edge7" class="edge">
<title>139775822607792&#45;&gt;139775822608800</title>
<path fill="none" stroke="black" d="M196.46,-519.88C196.46,-511.67 196.46,-502.31 196.46,-493.45"/>
<polygon fill="black" stroke="black" points="199.96,-493.38 196.46,-483.38 192.96,-493.38 199.96,-493.38"/>
</g>
<!-- 139775822623072 -->
<g id="node9" class="node">
<title>139775822623072</title>
<polygon fill="none" stroke="black" points="19.47,-346.9 19.47,-396.5 373.45,-396.5 373.45,-346.9 19.47,-346.9"/>
<text text-anchor="middle" x="105.8" y="-367.5" font-family="Times,serif" font-size="14.00">leaky_re_lu_2: LeakyReLU</text>
<polyline fill="none" stroke="black" points="192.14,-346.9 192.14,-396.5 "/>
<text text-anchor="middle" x="219.97" y="-379.9" font-family="Times,serif" font-size="14.00">input:</text>
<polyline fill="none" stroke="black" points="192.14,-371.7 247.81,-371.7 "/>
<text text-anchor="middle" x="219.97" y="-355.1" font-family="Times,serif" font-size="14.00">output:</text>
<polyline fill="none" stroke="black" points="247.81,-346.9 247.81,-396.5 "/>
<text text-anchor="middle" x="310.63" y="-379.9" font-family="Times,serif" font-size="14.00">(None, 13, 13, 128)</text>
<polyline fill="none" stroke="black" points="247.81,-371.7 373.45,-371.7 "/>
<text text-anchor="middle" x="310.63" y="-355.1" font-family="Times,serif" font-size="14.00">(None, 13, 13, 128)</text>
</g>
<!-- 139775822608800&#45;&gt;139775822623072 -->
<g id="edge8" class="edge">
<title>139775822608800&#45;&gt;139775822623072</title>
<path fill="none" stroke="black" d="M196.46,-433.28C196.46,-425.07 196.46,-415.71 196.46,-406.85"/>
<polygon fill="black" stroke="black" points="199.96,-406.78 196.46,-396.78 192.96,-406.78 199.96,-406.78"/>
</g>
<!-- 139775822623744 -->
<g id="node10" class="node">
<title>139775822623744</title>
<polygon fill="none" stroke="black" points="0,-260.3 0,-309.9 392.92,-309.9 392.92,-260.3 0,-260.3"/>
<text text-anchor="middle" x="105.8" y="-280.9" font-family="Times,serif" font-size="14.00">max_pooling2d_2: MaxPooling2D</text>
<polyline fill="none" stroke="black" points="211.61,-260.3 211.61,-309.9 "/>
<text text-anchor="middle" x="239.44" y="-293.3" font-family="Times,serif" font-size="14.00">input:</text>
<polyline fill="none" stroke="black" points="211.61,-285.1 267.28,-285.1 "/>
<text text-anchor="middle" x="239.44" y="-268.5" font-family="Times,serif" font-size="14.00">output:</text>
<polyline fill="none" stroke="black" points="267.28,-260.3 267.28,-309.9 "/>
<text text-anchor="middle" x="330.1" y="-293.3" font-family="Times,serif" font-size="14.00">(None, 13, 13, 128)</text>
<polyline fill="none" stroke="black" points="267.28,-285.1 392.92,-285.1 "/>
<text text-anchor="middle" x="330.1" y="-268.5" font-family="Times,serif" font-size="14.00">(None, 7, 7, 128)</text>
</g>
<!-- 139775822623072&#45;&gt;139775822623744 -->
<g id="edge9" class="edge">
<title>139775822623072&#45;&gt;139775822623744</title>
<path fill="none" stroke="black" d="M196.46,-346.68C196.46,-338.47 196.46,-329.11 196.46,-320.25"/>
<polygon fill="black" stroke="black" points="199.96,-320.18 196.46,-310.18 192.96,-320.18 199.96,-320.18"/>
</g>
<!-- 139775822624512 -->
<g id="node11" class="node">
<title>139775822624512</title>
<polygon fill="none" stroke="black" points="63.79,-173.7 63.79,-223.3 329.14,-223.3 329.14,-173.7 63.79,-173.7"/>
<text text-anchor="middle" x="112.8" y="-194.3" font-family="Times,serif" font-size="14.00">flatten: Flatten</text>
<polyline fill="none" stroke="black" points="161.82,-173.7 161.82,-223.3 "/>
<text text-anchor="middle" x="189.66" y="-206.7" font-family="Times,serif" font-size="14.00">input:</text>
<polyline fill="none" stroke="black" points="161.82,-198.5 217.49,-198.5 "/>
<text text-anchor="middle" x="189.66" y="-181.9" font-family="Times,serif" font-size="14.00">output:</text>
<polyline fill="none" stroke="black" points="217.49,-173.7 217.49,-223.3 "/>
<text text-anchor="middle" x="273.31" y="-206.7" font-family="Times,serif" font-size="14.00">(None, 7, 7, 128)</text>
<polyline fill="none" stroke="black" points="217.49,-198.5 329.14,-198.5 "/>
<text text-anchor="middle" x="273.31" y="-181.9" font-family="Times,serif" font-size="14.00">(None, 6272)</text>
</g>
<!-- 139775822623744&#45;&gt;139775822624512 -->
<g id="edge10" class="edge">
<title>139775822623744&#45;&gt;139775822624512</title>
<path fill="none" stroke="black" d="M196.46,-260.08C196.46,-251.87 196.46,-242.51 196.46,-233.65"/>
<polygon fill="black" stroke="black" points="199.96,-233.58 196.46,-223.58 192.96,-233.58 199.96,-233.58"/>
</g>
<!-- 139775822625232 -->
<g id="node12" class="node">
<title>139775822625232</title>
<polygon fill="none" stroke="black" points="78.18,-87.1 78.18,-136.7 314.74,-136.7 314.74,-87.1 78.18,-87.1"/>
<text text-anchor="middle" x="123.3" y="-107.7" font-family="Times,serif" font-size="14.00">dense: Dense</text>
<polyline fill="none" stroke="black" points="168.43,-87.1 168.43,-136.7 "/>
<text text-anchor="middle" x="196.26" y="-120.1" font-family="Times,serif" font-size="14.00">input:</text>
<polyline fill="none" stroke="black" points="168.43,-111.9 224.1,-111.9 "/>
<text text-anchor="middle" x="196.26" y="-95.3" font-family="Times,serif" font-size="14.00">output:</text>
<polyline fill="none" stroke="black" points="224.1,-87.1 224.1,-136.7 "/>
<text text-anchor="middle" x="269.42" y="-120.1" font-family="Times,serif" font-size="14.00">(None, 6272)</text>
<polyline fill="none" stroke="black" points="224.1,-111.9 314.74,-111.9 "/>
<text text-anchor="middle" x="269.42" y="-95.3" font-family="Times,serif" font-size="14.00">(None, 50)</text>
</g>
<!-- 139775822624512&#45;&gt;139775822625232 -->
<g id="edge11" class="edge">
<title>139775822624512&#45;&gt;139775822625232</title>
<path fill="none" stroke="black" d="M196.46,-173.48C196.46,-165.27 196.46,-155.91 196.46,-147.05"/>
<polygon fill="black" stroke="black" points="199.96,-146.98 196.46,-136.98 192.96,-146.98 199.96,-146.98"/>
</g>
<!-- 139775822626624 -->
<g id="node13" class="node">
<title>139775822626624</title>
<polygon fill="none" stroke="black" points="78.18,-0.5 78.18,-50.1 314.74,-50.1 314.74,-0.5 78.18,-0.5"/>
<text text-anchor="middle" x="130.3" y="-21.1" font-family="Times,serif" font-size="14.00">dense_1: Dense</text>
<polyline fill="none" stroke="black" points="182.43,-0.5 182.43,-50.1 "/>
<text text-anchor="middle" x="210.26" y="-33.5" font-family="Times,serif" font-size="14.00">input:</text>
<polyline fill="none" stroke="black" points="182.43,-25.3 238.1,-25.3 "/>
<text text-anchor="middle" x="210.26" y="-8.7" font-family="Times,serif" font-size="14.00">output:</text>
<polyline fill="none" stroke="black" points="238.1,-0.5 238.1,-50.1 "/>
<text text-anchor="middle" x="276.42" y="-33.5" font-family="Times,serif" font-size="14.00">(None, 50)</text>
<polyline fill="none" stroke="black" points="238.1,-25.3 314.74,-25.3 "/>
<text text-anchor="middle" x="276.42" y="-8.7" font-family="Times,serif" font-size="14.00">(None, 12)</text>
</g>
<!-- 139775822625232&#45;&gt;139775822626624 -->
<g id="edge12" class="edge">
<title>139775822625232&#45;&gt;139775822626624</title>
<path fill="none" stroke="black" d="M196.46,-86.88C196.46,-78.67 196.46,-69.31 196.46,-60.45"/>
<polygon fill="black" stroke="black" points="199.96,-60.38 196.46,-50.38 192.96,-60.38 199.96,-60.38"/>
</g>
</g>
</svg>
